<svg width="24" height="24" viewBox="0 0 24 24" fill="none" xmlns="http://www.w3.org/2000/svg">
<path d="M0.500002 12C0.500002 18.3513 5.64873 23.5 12 23.5C18.3513 23.5 23.5 18.3513 23.5 12C23.5 5.64873 18.3513 0.5 12 0.5C5.64873 0.5 0.500002 5.64873 0.500002 12Z" fill="#B38A58" stroke="#03002B"/>
<g clip-path="url(#clip0)">
<path d="M18.7856 11.4703L14.0237 6.70835C13.732 6.41668 13.2618 6.41668 12.9701 6.70835C12.6784 7.00002 12.6784 7.47026 12.9701 7.76192L16.4641 11.256L7.94034 11.256C7.52962 11.256 7.19629 11.5893 7.19629 12C7.19629 12.4107 7.52962 12.7441 7.94034 12.7441L16.4641 12.7441L12.9701 16.2381C12.6784 16.5298 12.6784 17 12.9701 17.2917C13.113 17.4345 13.3034 17.5119 13.4939 17.5119C13.6844 17.5119 13.8749 17.4405 14.0177 17.2917L18.7796 12.5298C19.0772 12.2322 19.0772 11.7619 18.7856 11.4703Z" fill="white"/>
<path d="M6.22003 12C6.22003 11.5891 5.88691 11.256 5.47598 11.256C5.06505 11.256 4.73193 11.5891 4.73193 12C4.73193 12.4109 5.06505 12.7441 5.47598 12.7441C5.88691 12.7441 6.22003 12.4109 6.22003 12Z" fill="white"/>
</g>
<defs>
<clipPath id="clip0">
<rect width="16" height="16" fill="white" transform="translate(3 20) rotate(-90)"/>
</clipPath>
</defs>
</svg>
