<svg xmlns="http://www.w3.org/2000/svg" width="24" height="24" viewBox="0 0 24 24">
  <g id="Grupo_456" data-name="Grupo 456" transform="translate(937 -4726)">
    <path id="Vector_18_" data-name="Vector (18)" d="M11.786,5.47,7.024.708A.745.745,0,0,0,5.97,1.762L9.464,5.256H.941a.744.744,0,1,0,0,1.488H9.464L5.97,10.238a.747.747,0,0,0,.524,1.274.721.721,0,0,0,.524-.22L11.78,6.53A.746.746,0,0,0,11.786,5.47Z" transform="translate(-931.197 4731.51)" fill="#828282"/>
    <path id="Ellipse_7" data-name="Ellipse 7" d="M.5,12A11.5,11.5,0,1,0,12,.5,11.5,11.5,0,0,0,.5,12Z" transform="translate(-937 4726)" fill="none" stroke="#828282" stroke-width="1"/>
  </g>
</svg>
