<svg width="24" height="24" viewBox="0 0 24 24" fill="none" xmlns="http://www.w3.org/2000/svg">
<path d="M0.500002 12C0.500002 18.3513 5.64873 23.5 12 23.5C18.3513 23.5 23.5 18.3513 23.5 12C23.5 5.64873 18.3513 0.5 12 0.5C5.64873 0.5 0.500002 5.64873 0.500002 12Z" stroke="#828282"/>
<g clip-path="url(#clip0)">
<path d="M18.7857 11.4703L14.0238 6.70836C13.7321 6.41669 13.2619 6.41669 12.9702 6.70836C12.6786 7.00003 12.6786 7.47026 12.9702 7.76193L16.4643 11.256L7.94046 11.256C7.52974 11.256 7.19641 11.5893 7.19641 12C7.19641 12.4107 7.52974 12.7441 7.94046 12.7441L16.4643 12.7441L12.9702 16.2381C12.6786 16.5298 12.6786 17 12.9702 17.2917C13.1131 17.4346 13.3036 17.5119 13.494 17.5119C13.6845 17.5119 13.875 17.4405 14.0178 17.2917L18.7797 12.5298C19.0774 12.2322 19.0774 11.7619 18.7857 11.4703Z" fill="#828282"/>
<path d="M6.22027 12C6.22027 11.5891 5.88715 11.256 5.47622 11.256C5.0653 11.256 4.73218 11.5891 4.73218 12C4.73218 12.4109 5.0653 12.744 5.47622 12.744C5.88715 12.744 6.22027 12.4109 6.22027 12Z" fill="#828282"/>
</g>
<defs>
<clipPath id="clip0">
<rect width="16" height="16" fill="white" transform="translate(3 20) rotate(-90)"/>
</clipPath>
</defs>
</svg>
