<svg width="23" height="23" viewBox="0 0 23 23" fill="none" xmlns="http://www.w3.org/2000/svg">
<path d="M1 11.5C1 17.299 5.70101 22 11.5 22C17.299 22 22 17.299 22 11.5C22 5.70101 17.299 1 11.5 1C5.70101 1 1 5.70101 1 11.5Z" stroke="#B38A58" stroke-width="2"/>
<g clip-path="url(#clip0)">
<path d="M17.3605 11.0425L13.2479 6.92996C12.996 6.67806 12.5899 6.67806 12.338 6.92996C12.0861 7.18185 12.0861 7.58797 12.338 7.83986L15.3556 10.8574L7.99415 10.8574C7.63944 10.8574 7.35156 11.1453 7.35156 11.5C7.35156 11.8547 7.63944 12.1426 7.99415 12.1426L15.3556 12.1426L12.338 15.1602C12.0861 15.4121 12.0861 15.8182 12.338 16.0701C12.4614 16.1935 12.6259 16.2603 12.7904 16.2603C12.9549 16.2603 13.1194 16.1986 13.2428 16.0701L17.3553 11.9576C17.6124 11.7005 17.6124 11.2944 17.3605 11.0425Z" fill="#B38A58"/>
<path d="M6.50832 11.5001C6.50832 11.1452 6.22062 10.8575 5.86573 10.8575C5.51084 10.8575 5.22314 11.1452 5.22314 11.5001C5.22314 11.8549 5.51084 12.1426 5.86573 12.1426C6.22062 12.1426 6.50832 11.8549 6.50832 11.5001Z" fill="#B38A58"/>
</g>
<defs>
<clipPath id="clip0">
<rect width="13.8182" height="13.8182" fill="white" transform="translate(3.72729 18.4091) rotate(-90)"/>
</clipPath>
</defs>
</svg>
