<svg width="24" height="24" viewBox="0 0 24 24" fill="none" xmlns="http://www.w3.org/2000/svg">
<path d="M23.5 12C23.5 5.64872 18.3513 0.499998 12 0.499998C5.64873 0.499998 0.5 5.64872 0.5 12C0.5 18.3513 5.64873 23.5 12 23.5C18.3513 23.5 23.5 18.3513 23.5 12Z" stroke="#B38A58"/>
<g clip-path="url(#clip0)">
<path d="M5.2143 12.5297L9.97621 17.2916C10.2679 17.5833 10.7381 17.5833 11.0298 17.2916C11.3214 17 11.3214 16.5297 11.0298 16.2381L7.53573 12.744L16.0595 12.744C16.4703 12.744 16.8036 12.4107 16.8036 12C16.8036 11.5893 16.4703 11.2559 16.0595 11.2559L7.53573 11.2559L11.0298 7.76188C11.3214 7.47021 11.3214 6.99997 11.0298 6.70831C10.8869 6.56545 10.6964 6.48807 10.506 6.48807C10.3155 6.48807 10.125 6.5595 9.98216 6.70831L5.22026 11.4702C4.92264 11.7678 4.92264 12.2381 5.2143 12.5297Z" fill="#B38A58"/>
<path d="M17.7797 12C17.7797 12.4109 18.1128 12.744 18.5238 12.744C18.9347 12.744 19.2678 12.4109 19.2678 12C19.2678 11.5891 18.9347 11.256 18.5238 11.256C18.1128 11.256 17.7797 11.5891 17.7797 12Z" fill="#B38A58"/>
</g>
<defs>
<clipPath id="clip0">
<rect width="16" height="16" fill="white" transform="translate(21 4) rotate(90)"/>
</clipPath>
</defs>
</svg>
