<svg width="23" height="23" viewBox="0 0 23 23" fill="none" xmlns="http://www.w3.org/2000/svg">
<path d="M1 11.5C1 17.299 5.70101 22 11.5 22C17.299 22 22 17.299 22 11.5C22 5.70101 17.299 1 11.5 1C5.70101 1 1 5.70101 1 11.5Z" stroke="white" stroke-width="2"/>
<g clip-path="url(#clip0)">
<path d="M15.3556 11.3575L16.5627 11.3575L15.7092 10.504L12.6916 7.48637C12.635 7.42973 12.635 7.3402 12.6916 7.28357C12.7482 7.22694 12.8377 7.22694 12.8944 7.28357L17.0069 11.3961C17.061 11.4502 17.0662 11.5397 17.0018 11.6041L12.8892 15.7166L12.8892 15.7165L12.8821 15.7239C12.8605 15.7464 12.83 15.7604 12.7904 15.7604C12.76 15.7604 12.7223 15.7473 12.6916 15.7166C12.635 15.66 12.635 15.5705 12.6916 15.5138L15.7092 12.4962L16.5627 11.6427L15.3556 11.6427L7.99415 11.6427C7.91558 11.6427 7.85156 11.5787 7.85156 11.5001C7.85156 11.4215 7.91558 11.3575 7.99415 11.3575L15.3556 11.3575Z" stroke="white"/>
<path d="M5.86573 11.3575C5.94448 11.3575 6.00832 11.4214 6.00832 11.5001C6.00832 11.5789 5.94448 11.6427 5.86573 11.6427C5.78698 11.6427 5.72314 11.5789 5.72314 11.5001C5.72314 11.4214 5.78698 11.3575 5.86573 11.3575Z" stroke="white"/>
</g>
<defs>
<clipPath id="clip0">
<rect width="13.8182" height="13.8182" fill="white" transform="translate(3.72729 18.4092) rotate(-90)"/>
</clipPath>
</defs>
</svg>
