<svg width="22" height="22" viewBox="0 0 22 22" fill="none" xmlns="http://www.w3.org/2000/svg">
<g clip-path="url(#clip0)">
<path d="M15.7857 10.4703L11.0238 5.70836C10.7321 5.41669 10.2619 5.41669 9.97022 5.70836C9.67855 6.00003 9.67855 6.47026 9.97022 6.76193L13.4643 10.256L4.94046 10.256C4.52974 10.256 4.19641 10.5893 4.19641 11C4.19641 11.4107 4.52974 11.7441 4.94046 11.7441L13.4643 11.7441L9.97022 15.2381C9.67855 15.5298 9.67855 16 9.97022 16.2917C10.1131 16.4346 10.3036 16.5119 10.494 16.5119C10.6845 16.5119 10.875 16.4405 11.0178 16.2917L15.7797 11.5298C16.0774 11.2322 16.0774 10.7619 15.7857 10.4703Z" fill="#828282"/>
<path d="M3.22027 11C3.22027 10.5891 2.88715 10.256 2.47622 10.256C2.0653 10.256 1.73218 10.5891 1.73218 11C1.73218 11.4109 2.0653 11.744 2.47622 11.744C2.88715 11.744 3.22027 11.4109 3.22027 11Z" fill="#828282"/>
</g>
<rect x="20" y="5" width="2" height="12" rx="1" fill="#828282"/>
<defs>
<clipPath id="clip0">
<rect width="16" height="16" fill="white" transform="translate(0 19) rotate(-90)"/>
</clipPath>
</defs>
</svg>
