<svg width="22" height="22" viewBox="0 0 22 22" fill="none" xmlns="http://www.w3.org/2000/svg">
<g clip-path="url(#clip0)">
<path d="M6.2143 11.5297L10.9762 16.2916C11.2679 16.5833 11.7381 16.5833 12.0298 16.2916C12.3214 16 12.3214 15.5297 12.0298 15.2381L8.53573 11.744L17.0595 11.744C17.4703 11.744 17.8036 11.4107 17.8036 11C17.8036 10.5893 17.4703 10.2559 17.0595 10.2559L8.53573 10.2559L12.0298 6.76188C12.3214 6.47021 12.3214 5.99997 12.0298 5.70831C11.8869 5.56545 11.6964 5.48807 11.506 5.48807C11.3155 5.48807 11.125 5.5595 10.9822 5.70831L6.22026 10.4702C5.92264 10.7678 5.92264 11.2381 6.2143 11.5297Z" fill="#B38A58"/>
<path d="M18.7798 11C18.7798 11.4109 19.1129 11.744 19.5238 11.744C19.9348 11.744 20.2679 11.4109 20.2679 11C20.2679 10.5891 19.9348 10.256 19.5238 10.256C19.1129 10.256 18.7798 10.5891 18.7798 11Z" fill="#B38A58"/>
</g>
<rect x="2" y="17" width="2" height="12" rx="1" transform="rotate(-180 2 17)" fill="#B38A58"/>
<defs>
<clipPath id="clip0">
<rect width="16" height="16" fill="white" transform="translate(22 3) rotate(90)"/>
</clipPath>
</defs>
</svg>
