<svg width="32" height="32" viewBox="0 0 32 32" fill="none" xmlns="http://www.w3.org/2000/svg">
<g filter="url(#filter0_d)">
<path d="M16 0.500001C9.64873 0.5 4.5 5.64873 4.5 12C4.5 18.3513 9.64872 23.5 16 23.5C22.3513 23.5 27.5 18.3513 27.5 12C27.5 5.64873 22.3513 0.500002 16 0.500001Z" stroke="#B38A58"/>
<g clip-path="url(#clip0)">
<path d="M16.5299 18.7857L21.2919 14.0238C21.5835 13.7321 21.5835 13.2619 21.2919 12.9702C21.0002 12.6786 20.53 12.6786 20.2383 12.9702L16.7442 16.4643V7.94046C16.7442 7.52974 16.4109 7.19641 16.0002 7.19641C15.5895 7.19641 15.2561 7.52974 15.2561 7.94046V16.4643L11.7621 12.9702C11.4704 12.6786 11.0002 12.6786 10.7085 12.9702C10.5657 13.1131 10.4883 13.3036 10.4883 13.494C10.4883 13.6845 10.5597 13.875 10.7085 14.0178L15.4704 18.7797C15.768 19.0774 16.2383 19.0774 16.5299 18.7857Z" fill="#F2F2F2"/>
<path d="M15.9999 6.22027C16.4108 6.22027 16.7439 5.88715 16.7439 5.47622C16.7439 5.0653 16.4108 4.73218 15.9999 4.73218C15.589 4.73218 15.2559 5.0653 15.2559 5.47622C15.2559 5.88715 15.589 6.22027 15.9999 6.22027Z" fill="#F2F2F2"/>
</g>
</g>
<defs>
<filter id="filter0_d" x="0" y="0" width="32" height="32" filterUnits="userSpaceOnUse" color-interpolation-filters="sRGB">
<feFlood flood-opacity="0" result="BackgroundImageFix"/>
<feColorMatrix in="SourceAlpha" type="matrix" values="0 0 0 0 0 0 0 0 0 0 0 0 0 0 0 0 0 0 127 0"/>
<feOffset dy="4"/>
<feGaussianBlur stdDeviation="2"/>
<feColorMatrix type="matrix" values="0 0 0 0 0 0 0 0 0 0 0 0 0 0 0 0 0 0 0.25 0"/>
<feBlend mode="normal" in2="BackgroundImageFix" result="effect1_dropShadow"/>
<feBlend mode="normal" in="SourceGraphic" in2="effect1_dropShadow" result="shape"/>
</filter>
<clipPath id="clip0">
<rect width="16" height="16" fill="white" transform="translate(8 3)"/>
</clipPath>
</defs>
</svg>
