<svg width="24" height="24" viewBox="0 0 24 24" fill="none" xmlns="http://www.w3.org/2000/svg">
<path d="M12 0.500001C5.64873 0.5 0.5 5.64873 0.499999 12C0.499998 18.3513 5.64872 23.5 12 23.5C18.3513 23.5 23.5 18.3513 23.5 12C23.5 5.64873 18.3513 0.500002 12 0.500001Z" stroke="black"/>
<g clip-path="url(#clip0)">
<path d="M12.5297 18.7857L17.2916 14.0238C17.5833 13.7321 17.5833 13.2619 17.2916 12.9702C16.9999 12.6786 16.5297 12.6786 16.238 12.9702L12.744 16.4643V7.94046C12.744 7.52974 12.4107 7.19641 11.9999 7.19641C11.5892 7.19641 11.2559 7.52974 11.2559 7.94046V16.4643L7.76185 12.9702C7.47018 12.6786 6.99994 12.6786 6.70828 12.9702C6.56542 13.1131 6.48804 13.3036 6.48804 13.494C6.48804 13.6845 6.55947 13.875 6.70828 14.0178L11.4702 18.7797C11.7678 19.0774 12.238 19.0774 12.5297 18.7857Z" fill="black"/>
<path d="M11.9999 6.22027C12.4108 6.22027 12.7439 5.88715 12.7439 5.47622C12.7439 5.0653 12.4108 4.73218 11.9999 4.73218C11.589 4.73218 11.2559 5.0653 11.2559 5.47622C11.2559 5.88715 11.589 6.22027 11.9999 6.22027Z" fill="black"/>
</g>
<defs>
<clipPath id="clip0">
<rect width="16" height="16" fill="white" transform="translate(4 3)"/>
</clipPath>
</defs>
</svg>
