<svg width="16" height="16" viewBox="0 0 16 16" fill="none" xmlns="http://www.w3.org/2000/svg">
<g clip-path="url(#clip0)">
<path d="M12.3048 2.99554L12.0081 3.39797L12.3048 2.99554C11.857 2.66531 11.2263 2.76075 10.8961 3.20857L10.8961 3.2086L6.0906 9.72679L3.83291 8.06232C3.8329 8.06232 3.8329 8.06231 3.83289 8.06231C3.38499 7.73208 2.75434 7.82759 2.42417 8.27534L2.42415 8.27536C2.09393 8.72322 2.18935 9.35393 2.63721 9.68411L2.93391 9.28166L2.63721 9.68411L5.70576 11.9464C6.15371 12.2767 6.78462 12.1809 7.11458 11.7333L12.5179 4.40429C12.8481 3.9564 12.7526 3.3257 12.3048 2.99554Z" fill="#03002B" stroke="#03002B"/>
</g>
<defs>
<clipPath id="clip0">
<rect width="13.4807" height="13.4807" fill="white" transform="translate(0 2.01599) rotate(-8.60071)"/>
</clipPath>
</defs>
</svg>
