<svg width="55" height="54" viewBox="0 0 55 54" fill="none" xmlns="http://www.w3.org/2000/svg">
<g clip-path="url(#clip0)">
<path d="M49.2709 9H5.72913C2.57125 9 0 11.5245 0 14.6251V39.3751C0 42.4756 2.57125 45.0001 5.72913 45.0001H49.2708C52.4286 45.0001 54.9999 42.4756 54.9999 39.3751V14.6251C55 11.5245 52.4287 9 49.2709 9ZM52.7084 39.375C52.7084 41.2358 51.1661 42.75 49.2709 42.75H5.72913C3.83389 42.75 2.29163 41.2358 2.29163 39.375V14.6251C2.29163 12.7643 3.83389 11.2501 5.72913 11.2501H49.2708C51.166 11.2501 52.7083 12.7643 52.7083 14.6251V39.375H52.7084Z" fill="#828282"/>
<path d="M53.8541 15.75H1.14587C0.513369 15.75 0 16.254 0 16.875V23.625C0 24.246 0.513369 24.7501 1.14587 24.7501H53.8542C54.4867 24.7501 55.0001 24.246 55.0001 23.625V16.875C55 16.254 54.4866 15.75 53.8541 15.75ZM52.7084 22.5H2.29163V18H52.7083V22.5H52.7084Z" fill="#828282"/>
<path d="M21.7709 31.5H8.02087C7.38837 31.5 6.875 32.004 6.875 32.625C6.875 33.246 7.38837 33.75 8.02087 33.75H21.7709C22.4034 33.75 22.9167 33.2459 22.9167 32.6249C22.9167 32.0039 22.4034 31.5 21.7709 31.5Z" fill="#828282"/>
<path d="M21.7709 36H8.02087C7.38837 36 6.875 36.504 6.875 37.125C6.875 37.746 7.38837 38.2501 8.02087 38.2501H21.7709C22.4034 38.2501 22.9167 37.746 22.9167 37.125C22.9166 36.504 22.4034 36 21.7709 36Z" fill="#828282"/>
<path d="M44.6871 29.25H42.3955C40.5003 29.25 38.958 30.7642 38.958 32.625V34.875C38.958 36.7357 40.5003 38.25 42.3955 38.25H44.6871C46.5824 38.25 48.1246 36.7357 48.1246 34.875V32.625C48.1246 30.7643 46.5824 29.25 44.6871 29.25ZM45.833 34.8751C45.833 35.4961 45.3196 36.0001 44.6871 36.0001H42.3955C41.763 36.0001 41.2496 35.4961 41.2496 34.8751V32.6251C41.2496 32.0041 41.763 31.5001 42.3955 31.5001H44.6871C45.3196 31.5001 45.833 32.0041 45.833 32.6251V34.8751Z" fill="#828282"/>
</g>
<defs>
<clipPath id="clip0">
<rect width="55" height="54" fill="white"/>
</clipPath>
</defs>
</svg>
