<svg width="20" height="34" viewBox="0 0 20 34" fill="none" xmlns="http://www.w3.org/2000/svg">
<g filter="url(#filter0_d)">
<mask id="path-1-inside-1" fill="white">
<path fill-rule="evenodd" clip-rule="evenodd" d="M6.66728 13.1815V24.9595C6.66934 25.04 6.70278 25.1165 6.76044 25.1726C6.81811 25.2288 6.89546 25.2603 6.97598 25.2602H11.3532C11.4329 25.2602 11.5094 25.2286 11.5658 25.1721C11.6222 25.1157 11.6539 25.0392 11.6539 24.9595V12.9915H14.8201C14.8972 12.9916 14.9714 12.9621 15.0273 12.9091C15.0833 12.856 15.1168 12.7835 15.1208 12.7065L15.4295 9.10506C15.4328 9.06257 15.4273 9.01986 15.4132 8.97963C15.3992 8.93939 15.377 8.90249 15.348 8.87126C15.319 8.84003 15.2838 8.81515 15.2447 8.79817C15.2056 8.78119 15.1635 8.77249 15.1208 8.77262H11.6539V6.21597C11.6539 5.92764 11.7679 5.65099 11.9711 5.44637C12.1742 5.24175 12.45 5.12574 12.7383 5.12365H15.1683C15.2085 5.12471 15.2485 5.11771 15.2859 5.10307C15.3233 5.08843 15.3574 5.06644 15.3862 5.03841C15.4149 5.01037 15.4378 4.97685 15.4534 4.93984C15.469 4.90282 15.477 4.86305 15.477 4.82287V1.21348C15.477 1.13161 15.4445 1.05309 15.3866 0.995201C15.3287 0.937309 15.2502 0.904785 15.1683 0.904785H11.0603C9.89583 0.906878 8.77967 1.37038 7.95627 2.19378C7.13288 3.01717 6.66937 4.13334 6.66728 5.29779V8.77262H4.48265C4.40078 8.77262 4.32226 8.80514 4.26436 8.86304C4.20647 8.92093 4.17395 8.99945 4.17395 9.08132V12.6828C4.17596 12.764 4.20912 12.8414 4.26659 12.8989C4.32405 12.9563 4.40141 12.9895 4.48265 12.9915H6.66728V13.1815Z"/>
</mask>
<path d="M6.66728 24.9595H5.66728V24.9723L5.66761 24.9851L6.66728 24.9595ZM6.97598 25.2602V24.2602H6.97565L6.97598 25.2602ZM11.6539 12.9915V11.9915H10.6539V12.9915H11.6539ZM14.8201 12.9915L14.8215 11.9915H14.8201V12.9915ZM15.1208 12.7065L14.1245 12.6211L14.1231 12.6375L14.1222 12.6539L15.1208 12.7065ZM15.4295 9.10506L16.4259 9.19047L16.4266 9.18199L15.4295 9.10506ZM15.1208 8.77262V9.77262L15.1238 9.77262L15.1208 8.77262ZM11.6539 8.77262H10.6539V9.77262H11.6539V8.77262ZM11.6539 6.21597H12.6539V6.21594L11.6539 6.21597ZM12.7383 5.12365V4.12363L12.7311 4.12368L12.7383 5.12365ZM15.1683 5.12365L15.1947 4.124L15.1815 4.12365H15.1683V5.12365ZM15.4534 4.93984L16.3749 5.32835L15.4534 4.93984ZM15.477 4.82287H14.477V4.82322L15.477 4.82287ZM11.0603 0.904785V-0.0952165L11.0585 -0.0952132L11.0603 0.904785ZM6.66728 5.29779L5.66728 5.29599V5.29779H6.66728ZM6.66728 8.77262V9.77262H7.66728V8.77262H6.66728ZM4.48265 8.77262V7.77262V8.77262ZM4.17395 12.6828H3.17395V12.6951L3.17426 12.7075L4.17395 12.6828ZM4.48265 12.9915L4.45795 13.9912L4.4703 13.9915H4.48265V12.9915ZM6.66728 12.9915H7.66728V11.9915H6.66728V12.9915ZM5.66728 13.1815V24.9595H7.66728V13.1815H5.66728ZM5.66761 24.9851C5.67636 25.3263 5.81809 25.6507 6.06258 25.8889L7.45831 24.4564C7.58746 24.5823 7.66233 24.7536 7.66695 24.9338L5.66761 24.9851ZM6.06258 25.8889C6.30708 26.1271 6.63497 26.2604 6.9763 26.2602L6.97565 24.2602C7.15595 24.2602 7.32915 24.3306 7.45831 24.4564L6.06258 25.8889ZM6.97598 26.2602H11.3532V24.2602H6.97598V26.2602ZM11.3532 26.2602C11.6981 26.2602 12.029 26.1232 12.2729 25.8793L10.8587 24.465C10.9899 24.3339 11.1677 24.2602 11.3532 24.2602V26.2602ZM12.2729 25.8793C12.5169 25.6353 12.6539 25.3045 12.6539 24.9595H10.6539C10.6539 24.774 10.7276 24.5962 10.8587 24.465L12.2729 25.8793ZM12.6539 24.9595V12.9915H10.6539V24.9595H12.6539ZM11.6539 13.9915H14.8201V11.9915H11.6539V13.9915ZM14.8187 13.9915C15.1521 13.992 15.473 13.8643 15.7151 13.635L14.3396 12.1831C14.4697 12.0598 14.6422 11.9912 14.8215 11.9915L14.8187 13.9915ZM15.7151 13.635C15.9572 13.4057 16.1019 13.0922 16.1195 12.7592L14.1222 12.6539C14.1317 12.4749 14.2095 12.3064 14.3396 12.1831L15.7151 13.635ZM16.1172 12.7919L16.4259 9.19046L14.4332 9.01966L14.1245 12.6211L16.1172 12.7919ZM16.4266 9.18199C16.4405 9.00186 16.4169 8.82079 16.3574 8.65021L14.469 9.30904C14.4376 9.21894 14.4252 9.12329 14.4325 9.02814L16.4266 9.18199ZM16.3574 8.65021C16.2979 8.47963 16.2037 8.32321 16.0808 8.19081L14.6152 9.55171C14.5502 9.48178 14.5005 9.39915 14.469 9.30904L16.3574 8.65021ZM16.0808 8.19081C15.9578 8.05842 15.8088 7.95291 15.6431 7.88094L14.8464 9.7154C14.7588 9.67738 14.6801 9.62165 14.6152 9.55171L16.0808 8.19081ZM15.6431 7.88094C15.4774 7.80897 15.2985 7.77209 15.1179 7.77262L15.1238 9.77262C15.0284 9.7729 14.9339 9.75342 14.8464 9.7154L15.6431 7.88094ZM15.1208 7.77262H11.6539V9.77262H15.1208V7.77262ZM12.6539 8.77262V6.21597H10.6539V8.77262H12.6539ZM12.6539 6.21594C12.6539 6.19158 12.6636 6.1682 12.6807 6.1509L11.2614 4.74184C10.8723 5.13379 10.6539 5.66369 10.6539 6.216L12.6539 6.21594ZM12.6807 6.1509C12.6979 6.13361 12.7212 6.1238 12.7456 6.12363L12.7311 4.12368C12.1788 4.12768 11.6505 4.34989 11.2614 4.74184L12.6807 6.1509ZM12.7383 6.12365H15.1683V4.12365H12.7383V6.12365ZM15.142 6.12331C15.3157 6.12788 15.4885 6.09762 15.6503 6.03429L14.9214 4.17185C15.0084 4.13781 15.1013 4.12154 15.1947 4.124L15.142 6.12331ZM15.6503 6.03429C15.8121 5.97097 15.9596 5.87588 16.084 5.75464L14.6883 4.32218C14.7552 4.257 14.8345 4.20589 14.9214 4.17185L15.6503 6.03429ZM16.084 5.75464C16.2085 5.63338 16.3074 5.48844 16.3749 5.32835L14.532 4.55132C14.5682 4.46527 14.6214 4.38736 14.6883 4.32218L16.084 5.75464ZM16.3749 5.32835C16.4423 5.16826 16.4771 4.99627 16.477 4.82253L14.477 4.82322C14.477 4.72983 14.4957 4.63737 14.532 4.55132L16.3749 5.32835ZM16.477 4.82287V1.21348H14.477V4.82287H16.477ZM16.477 1.21348C16.477 0.866401 16.3392 0.533527 16.0937 0.288095L14.6795 1.70231C14.5499 1.57266 14.477 1.39682 14.477 1.21348H16.477ZM16.0937 0.288095C15.8483 0.0426691 15.5154 -0.0952148 15.1683 -0.0952148V1.90479C14.985 1.90479 14.8092 1.83195 14.6795 1.70231L16.0937 0.288095ZM15.1683 -0.0952148H11.0603V1.90479H15.1683V-0.0952148ZM11.0585 -0.0952132C9.62944 -0.0926453 8.25965 0.476181 7.24916 1.48667L8.66338 2.90089C9.29968 2.26459 10.1622 1.9064 11.0621 1.90478L11.0585 -0.0952132ZM7.24916 1.48667C6.23867 2.49716 5.66985 3.86695 5.66728 5.29599L7.66728 5.29959C7.66889 4.39973 8.02708 3.53718 8.66338 2.90089L7.24916 1.48667ZM5.66728 5.29779V8.77262H7.66728V5.29779H5.66728ZM6.66728 7.77262H4.48265V9.77262H6.66728V7.77262ZM4.48265 7.77262C4.13557 7.77262 3.80269 7.91049 3.55726 8.15593L4.97147 9.57014C4.84182 9.69979 4.66598 9.77262 4.48265 9.77262V7.77262ZM3.55726 8.15593C3.31182 8.40136 3.17395 8.73424 3.17395 9.08132H5.17395C5.17395 9.26465 5.10112 9.44049 4.97147 9.57014L3.55726 8.15593ZM3.17395 9.08132V12.6828H5.17395V9.08132H3.17395ZM3.17426 12.7075C3.1826 13.0453 3.32052 13.367 3.55948 13.606L4.97369 12.1917C5.09772 12.3158 5.16931 12.4827 5.17365 12.6581L3.17426 12.7075ZM3.55948 13.606C3.79844 13.8449 4.12012 13.9828 4.45795 13.9912L4.50734 11.9918C4.68269 11.9961 4.84966 12.0677 4.97369 12.1917L3.55948 13.606ZM4.48265 13.9915H6.66728V11.9915H4.48265V13.9915ZM5.66728 12.9915V13.1815H7.66728V12.9915H5.66728Z" fill="#F2F2F2" mask="url(#path-1-inside-1)"/>
</g>
<defs>
<filter id="filter0_d" x="0.17395" y="0.904785" width="19.3031" height="32.3555" filterUnits="userSpaceOnUse" color-interpolation-filters="sRGB">
<feFlood flood-opacity="0" result="BackgroundImageFix"/>
<feColorMatrix in="SourceAlpha" type="matrix" values="0 0 0 0 0 0 0 0 0 0 0 0 0 0 0 0 0 0 127 0"/>
<feOffset dy="4"/>
<feGaussianBlur stdDeviation="2"/>
<feColorMatrix type="matrix" values="0 0 0 0 0 0 0 0 0 0 0 0 0 0 0 0 0 0 0.25 0"/>
<feBlend mode="normal" in2="BackgroundImageFix" result="effect1_dropShadow"/>
<feBlend mode="normal" in="SourceGraphic" in2="effect1_dropShadow" result="shape"/>
</filter>
</defs>
</svg>
