<svg width="11" height="23" viewBox="0 0 11 23" fill="none" xmlns="http://www.w3.org/2000/svg">
<path fill-rule="evenodd" clip-rule="evenodd" d="M2.25341 11.0954V21.7401C2.25528 21.8128 2.28549 21.882 2.33761 21.9327C2.38974 21.9835 2.45964 22.0119 2.53241 22.0119H6.4884C6.56049 22.0119 6.62964 21.9833 6.68062 21.9323C6.7316 21.8813 6.76024 21.8122 6.76024 21.7401V10.9237H9.62171C9.6914 10.9238 9.75846 10.8971 9.80905 10.8492C9.85963 10.8013 9.88989 10.7357 9.89355 10.6662L10.1725 7.41122C10.1755 7.37282 10.1705 7.33422 10.1578 7.29786C10.1451 7.26149 10.125 7.22815 10.0988 7.19992C10.0726 7.1717 10.0408 7.1492 10.0055 7.13386C9.97019 7.11852 9.93207 7.11066 9.89355 7.11077H6.76024V4.80013C6.76023 4.53954 6.86326 4.28952 7.04685 4.10458C7.23044 3.91965 7.47971 3.81481 7.74029 3.81292H9.93648C9.97277 3.81387 10.0089 3.80755 10.0427 3.79432C10.0765 3.78108 10.1073 3.76121 10.1333 3.73587C10.1593 3.71053 10.18 3.68024 10.1941 3.64679C10.2082 3.61333 10.2155 3.57739 10.2155 3.54108V0.278994C10.2155 0.205 10.1861 0.134038 10.1338 0.081716C10.0814 0.0293945 10.0105 0 9.93648 0H6.22371C5.1713 0.00189112 4.16254 0.420797 3.41837 1.16496C2.67421 1.90913 2.2553 2.91789 2.25341 3.9703V7.11077H0.278994C0.205 7.11077 0.134036 7.14016 0.0817147 7.19248C0.0293932 7.24481 0 7.31577 0 7.38976V10.6447C0.00181373 10.7181 0.0317896 10.788 0.0837232 10.84C0.135657 10.8919 0.205571 10.9219 0.278994 10.9237H2.25341V11.0954Z" fill="white"/>
</svg>
