<svg width="27" height="27" viewBox="0 0 27 27" fill="none" xmlns="http://www.w3.org/2000/svg">
<g clip-path="url(#clip0)">
<path d="M5.98623 16.3165L5.04357 19.8266L1.61013 19.9262C0.568824 17.9853 0.0175118 15.8194 0.00415488 13.6168C-0.00920204 11.4142 0.515801 9.24178 1.5335 7.28839L4.59906 7.85552L5.94025 10.9211C5.33229 12.6834 5.3594 14.6027 6.01689 16.3471L5.98623 16.3165Z" fill="#F8B800"/>
<path d="M26.7623 10.9748C26.919 11.8061 26.9986 12.6502 26.9999 13.4962C27.0027 14.4444 26.9024 15.39 26.701 16.3165C26.0577 19.3592 24.3783 22.0843 21.9493 24.0264L18.1174 23.8272L17.5732 20.4244C19.1633 19.491 20.3858 18.0413 21.0373 16.3165H13.7949V10.9518H26.7623V10.9748Z" fill="#518BF5"/>
<path d="M21.9494 24.0264C20.4071 25.2683 18.6103 26.1556 16.6866 26.6253C14.7629 27.0951 12.7594 27.1357 10.8182 26.7444C8.87707 26.3531 7.04579 25.5394 5.45431 24.3611C3.86283 23.1828 2.55015 21.6687 1.60938 19.9262L5.98547 16.3472C6.40029 17.4382 7.04792 18.4257 7.88327 19.2409C8.71862 20.0561 9.72161 20.6795 10.8224 21.0676C11.9232 21.4557 13.0954 21.5992 14.2573 21.4881C15.4192 21.377 16.543 21.014 17.5503 20.4244L21.9494 24.0264Z" fill="#28B146"/>
<path d="M22.1185 3.11158L17.7424 6.69063C16.4712 5.89024 14.9987 5.46763 13.4966 5.47207C11.8251 5.47248 10.1955 5.99485 8.83525 6.96625C7.47502 7.93765 6.45209 9.30957 5.9093 10.8905L1.5332 7.28842C2.46233 5.5018 3.77928 3.94561 5.38762 2.73379C6.99596 1.52196 8.85497 0.685196 10.8285 0.284753C12.8021 -0.115689 14.8402 -0.0696665 16.7937 0.419451C18.7472 0.908568 20.5665 1.8284 22.1185 3.11158Z" fill="#EE4336"/>
</g>
<defs>
<clipPath id="clip0">
<rect width="27" height="27" fill="white"/>
</clipPath>
</defs>
</svg>
