<svg width="23" height="23" viewBox="0 0 23 23" fill="none" xmlns="http://www.w3.org/2000/svg">
<path d="M21.2788 5.85601C19.77 3.23792 17.3313 1.37019 14.4196 0.587211C11.5079 -0.195767 8.46571 0.203878 5.84763 1.7209C3.2377 3.22976 1.36997 5.66842 0.58699 8.58012C-0.195989 11.4918 0.203657 14.534 1.72068 17.1521C3.22954 19.762 5.66819 21.6298 8.5799 22.4127C9.54231 22.6737 10.5292 22.8042 11.5161 22.8042C13.4817 22.8042 15.431 22.2822 17.1437 21.2872C19.7537 19.7783 21.6214 17.3397 22.4044 14.428C23.1873 11.5081 22.7877 8.46593 21.2788 5.85601ZM20.4469 13.8979C19.8107 16.2876 18.2774 18.2858 16.1324 19.5255C13.9873 20.7652 11.4916 21.0915 9.10188 20.4471C6.71217 19.811 4.71394 18.2776 3.47422 16.1326C2.23451 13.9876 1.90827 11.4918 2.54444 9.10211C3.18876 6.71239 4.7221 4.71416 6.86713 3.4826C8.27812 2.667 9.87671 2.23473 11.4834 2.23473C12.299 2.23473 13.1065 2.34076 13.8976 2.55281C16.2873 3.18898 18.2856 4.72232 19.5253 6.86735C20.765 9.01239 21.0912 11.5081 20.4469 13.8979Z" fill="#F2F2F2"/>
<path d="M16.8664 10.195L9.89301 6.16593C9.41996 5.89678 8.85719 5.89678 8.38414 6.16593C7.91109 6.43508 7.63379 6.92444 7.63379 7.47089V15.5209C7.63379 16.0673 7.91925 16.5567 8.38414 16.8259C8.62067 16.9564 8.88166 17.0298 9.1345 17.0298C9.39549 17.0298 9.65648 16.9564 9.88485 16.8259L16.8583 12.7968C17.3313 12.5276 17.6086 12.0383 17.6086 11.4918C17.6168 10.9535 17.3395 10.4642 16.8664 10.195ZM15.5696 11.5L9.41996 15.056V7.94394L15.5696 11.5Z" fill="#F2F2F2"/>
</svg>
