<svg width="23" height="23" viewBox="0 0 23 23" fill="none" xmlns="http://www.w3.org/2000/svg">
<path d="M21.2793 5.85603C19.7705 3.23794 17.3318 1.37021 14.4201 0.587234C11.5084 -0.195744 8.4662 0.203901 5.84812 1.72092C3.23819 3.22979 1.37046 5.66844 0.587478 8.58014C-0.1955 11.4918 0.204145 14.534 1.72117 17.1521C3.23003 19.7621 5.66868 21.6298 8.58039 22.4128C9.5428 22.6738 10.5297 22.8043 11.5166 22.8043C13.4822 22.8043 15.4314 22.2823 17.1442 21.2872C19.7541 19.7784 21.6219 17.3397 22.4049 14.428C23.1878 11.5082 22.7882 8.46596 21.2793 5.85603ZM20.4474 13.8979C19.8112 16.2876 18.2779 18.2858 16.1329 19.5255C13.9878 20.7652 11.4921 21.0915 9.10237 20.4472C6.71266 19.811 4.71443 18.2777 3.47471 16.1326C2.235 13.9876 1.90876 11.4918 2.54493 9.10213C3.18925 6.71241 4.72258 4.71418 6.86762 3.48262C8.27861 2.66702 9.87719 2.23475 11.4839 2.23475C12.2995 2.23475 13.107 2.34078 13.8981 2.55284C16.2878 3.18901 18.2861 4.72234 19.5258 6.86738C20.7655 9.01241 21.0917 11.5082 20.4474 13.8979Z" fill="#03002B"/>
<path d="M16.8674 10.1951L9.89399 6.16597C9.42094 5.89682 8.85817 5.89682 8.38512 6.16597C7.91207 6.43512 7.63477 6.92448 7.63477 7.47094V15.5209C7.63477 16.0674 7.92023 16.5568 8.38512 16.8259C8.62165 16.9564 8.88264 17.0298 9.13548 17.0298C9.39647 17.0298 9.65746 16.9564 9.88583 16.8259L16.8592 12.7968C17.3323 12.5277 17.6096 12.0383 17.6096 11.4919C17.6177 10.9536 17.3404 10.4642 16.8674 10.1951ZM15.5706 11.5L9.42094 15.056V7.94399L15.5706 11.5Z" fill="#03002B"/>
</svg>
