<svg width="26" height="27" viewBox="0 0 26 27" fill="none" xmlns="http://www.w3.org/2000/svg">
<path d="M20.6856 6.80191C20.6856 7.35198 20.2397 7.7979 19.6896 7.7979C19.1395 7.7979 18.6936 7.35198 18.6936 6.80191C18.6936 6.25183 19.1395 5.80591 19.6896 5.80591C20.2397 5.80591 20.6856 6.25183 20.6856 6.80191Z" stroke="#F2F2F2"/>
<path d="M10.1851 9.58813C11.0179 9.03299 11.9966 8.73733 12.9975 8.73853C14.3378 8.74199 15.6222 9.2764 16.5694 10.2248C17.5166 11.1732 18.0494 12.4584 18.0511 13.7988C18.051 14.7996 17.7541 15.7778 17.1979 16.6098C16.6417 17.442 15.8511 18.0905 14.9262 18.4733C14.0013 18.8561 12.9836 18.9559 12.002 18.7602C11.0203 18.5644 10.1188 18.0819 9.41145 17.3736C8.7041 16.6654 8.22272 15.7633 8.02821 14.7814C7.8337 13.7995 7.93481 12.7819 8.31874 11.8575C8.70268 10.9331 9.35218 10.1433 10.1851 9.58813Z" stroke="#F2F2F2"/>
<path d="M18.0268 25.7341H7.85666C5.95974 25.7321 4.14106 24.9777 2.79973 23.6364C1.45846 22.2951 0.704052 20.4765 0.702026 18.5797V8.4093C0.706077 6.51384 1.46134 4.69727 2.80234 3.35766C4.1434 2.01799 5.96085 1.2646 7.85641 1.26257H18.0271C19.9226 1.2646 21.7401 2.01799 23.0811 3.35766C24.4221 4.69718 25.1773 6.5136 25.1815 8.40892C25.1815 8.40921 25.1815 8.40951 25.1815 8.40981L25.1815 18.5795C25.1795 20.4764 24.4251 22.2951 23.0838 23.6364C21.7424 24.9777 19.9238 25.7321 18.0268 25.7341Z" stroke="#F2F2F2"/>
</svg>
