<svg width="38" height="39" viewBox="0 0 38 39" fill="none" xmlns="http://www.w3.org/2000/svg">
<path d="M22.7917 28.9767H15.1328C13.6047 28.9751 12.1395 28.3617 11.059 27.2713C9.97849 26.1808 9.37075 24.7022 9.36914 23.16V15.4305C9.3723 13.8894 9.98075 12.4123 11.0611 11.3232C12.1415 10.234 13.6057 9.62143 15.1328 9.61987H22.7917C24.3188 9.62143 25.7829 10.234 26.8633 11.3232C27.9437 12.4123 28.5521 13.8894 28.5553 15.4305V23.16C28.5537 24.7022 27.9459 26.1808 26.8654 27.2713C25.7849 28.3617 24.3198 28.9751 22.7917 28.9767Z" fill="#03002B"/>
<path d="M24.0435 15.3462C24.6656 15.3462 25.1699 14.8373 25.1699 14.2094C25.1699 13.5815 24.6656 13.0725 24.0435 13.0725C23.4214 13.0725 22.917 13.5815 22.917 14.2094C22.917 14.8373 23.4214 15.3462 24.0435 15.3462Z" fill="white"/>
<path d="M19.043 14.5282C18.1079 14.527 17.1935 14.8058 16.4155 15.3291C15.6374 15.8526 15.0307 16.5972 14.6721 17.4686C14.3134 18.3401 14.219 19.2994 14.4006 20.2251C14.5823 21.1508 15.032 22.0013 15.6928 22.669C16.3535 23.3367 17.1957 23.7916 18.1127 23.9761C19.0298 24.1607 19.9804 24.0666 20.8444 23.7057C21.7084 23.3449 22.4469 22.7335 22.9665 21.9489C23.4862 21.1644 23.7635 20.2419 23.7635 19.2982C23.7619 18.0346 23.2643 16.8232 22.3795 15.9291C21.4948 15.0351 20.295 14.5314 19.043 14.5282ZM19.043 22.3479C18.4442 22.3479 17.8587 22.1687 17.3608 21.8329C16.8629 21.4972 16.4748 21.0199 16.2456 20.4616C16.0165 19.9032 15.9565 19.2888 16.0734 18.6961C16.1902 18.1033 16.4785 17.5588 16.902 17.1315C17.3254 16.7041 17.865 16.4131 18.4523 16.2952C19.0396 16.1773 19.6484 16.2378 20.2017 16.4691C20.7549 16.7004 21.2278 17.0921 21.5605 17.5945C21.8932 18.097 22.0708 18.6878 22.0708 19.2922C22.0708 20.1032 21.752 20.881 21.1844 21.4551C20.6167 22.0291 19.8466 22.3523 19.043 22.3539V22.3479Z" fill="white"/>
</svg>
