<svg width="63" height="59" viewBox="0 0 63 59" fill="none" xmlns="http://www.w3.org/2000/svg">
<path d="M0.608163 26.9924C-1.5452 32.6497 2.71174 34.691 2.71174 34.691C6.27785 36.639 12.7193 38.5372 21.1211 35.0769C21.5594 34.8928 22.0135 34.749 22.4778 34.6474C22.6069 34.7922 22.6782 34.9794 22.6782 35.1733C22.6782 35.3673 22.6069 35.5544 22.4778 35.6992C22.1418 36.1224 21.5941 36.8444 19.6772 37.6223C18.2091 38.2278 16.6591 38.6117 15.078 38.7612C12.3518 38.9636 9.61144 38.6748 6.98734 37.9086C6.98734 37.9086 6.33386 38.8421 7.21761 40.4354C7.21761 40.4354 8.33164 42.9995 12.7877 43.6716C16.9264 44.294 21.37 43.3107 24.3325 41.3005C28.2533 38.6492 28.9566 34.5479 27.3945 31.7286C26.8841 30.8013 24.7557 27.926 19.1047 30.2972C7.13048 35.3507 0.925566 27.2103 0.608163 26.9924Z" fill="#03002B"/>
<path d="M56.552 20.8002C52.9983 12.5851 45.9719 11.9938 45.6483 11.9378C43.9306 11.664 42.9286 10.6931 42.941 9.16831C42.9509 8.43925 43.2491 7.74378 43.7705 7.23408C44.2918 6.72438 44.9939 6.44195 45.723 6.4486C48.1779 6.58067 50.5731 7.25441 52.7369 8.42148C56.3347 10.1969 59.1972 13.1761 60.8276 16.842C61.6664 18.7628 62.0906 20.839 62.0723 22.9349C62.0723 22.9349 61.5993 27.5154 58.8547 28.9469C58.4506 26.1415 57.6763 23.402 56.552 20.8002Z" fill="#03002B"/>
<path d="M28.0169 15.5408C28.1891 15.1896 28.447 14.8875 28.7668 14.6623C29.0865 14.4372 29.4579 14.2962 29.8466 14.2525C25.2909 13.7795 21.4821 15.1798 17.5301 16.3623C11.4123 18.1983 7.13051 15.2981 7.13051 15.2981C5.39413 14.0533 3.8818 15.6404 3.8818 15.6404C2.09563 17.4701 3.97516 19.2874 3.97516 19.2874C6.56752 21.14 9.6582 22.1681 12.8438 22.2374C15.0404 22.199 17.2186 21.8276 19.3038 21.1358C22.5526 20.1898 25.6581 19.2687 29.0002 19.3123C28.7699 18.8231 28.5014 18.3528 28.1973 17.9057C27.9605 17.5629 27.819 17.1632 27.7873 16.7477C27.7555 16.3321 27.8348 15.9156 28.0169 15.5408Z" fill="#03002B"/>
<path d="M40.8748 10.3444C40.9432 7.90473 39.7607 5.56465 37.3584 3.39262C34.2466 0.542214 27.1642 -0.341533 23.2807 0.112789C18.6112 0.744657 14.2306 2.73584 10.6841 5.83849C7.46033 8.88805 8.08891 11.6762 8.75483 13.0703C9.29006 14.1968 10.7277 16.0078 14.2938 15.4228C15.8871 15.1614 17.9222 14.4768 21.3203 13.0516C24.9362 11.5331 30.0333 12.5911 30.0768 12.6035C30.7371 12.7463 31.427 12.621 31.9948 12.2551C32.5626 11.8892 32.9618 11.3127 33.1046 10.6524C33.2474 9.9922 33.122 9.30228 32.7561 8.73446C32.3902 8.16664 31.8138 7.76744 31.1535 7.62466C30.8797 7.56865 24.4632 6.21191 19.3287 8.35905C15.968 9.7718 14.2627 10.2884 13.4039 10.4191C13.6137 10.0935 13.8647 9.79647 14.1507 9.53531C16.8993 7.18514 20.2646 5.67313 23.847 5.17879C27.2327 4.78671 32.4107 5.80115 33.9168 7.17656C35.1615 8.30925 35.7839 9.33615 35.7839 10.2261C35.7839 11.2779 35.5163 12.7156 34.5392 13.5246C33.6803 14.259 32.3484 14.4146 31.1224 14.371C33.7098 14.7315 36.2166 15.5314 38.5347 16.736C40.0669 14.9614 40.899 12.6888 40.8748 10.3444Z" fill="#03002B"/>
<path d="M31.4896 27.9256C30.9585 27.4286 30.6453 26.7418 30.6183 26.0149C30.5882 25.3076 30.5134 24.603 30.3942 23.9051C27.3571 22.0007 23.43 21.6709 19.2665 22.9841C11.5741 25.4237 5.45634 23.3077 2.26364 20.0776C1.74762 20.8737 1.46021 21.7962 1.43277 22.7444C1.40533 23.6927 1.63893 24.6303 2.10805 25.4548C3.6764 28.5977 8.28185 29.4379 8.28185 29.4379C12.5382 29.9816 16.8619 29.593 20.9531 28.299C23.6105 27.4588 25.9755 27.6144 27.6123 28.7471C28.9939 29.6931 29.7781 31.2863 29.8964 33.3339C30.1515 37.8273 28.0293 40.1798 25.3407 43.1111C23.6605 44.8212 22.1973 46.7317 20.9842 48.7995C20.9842 48.7995 17.0073 56.2118 24.6623 58.9999C24.5254 58.8319 23.1873 55.7201 25.907 51.4507C26.9554 49.821 28.1445 48.2862 29.4607 46.8639C32.4543 43.5779 35.8461 39.85 35.4602 33.0227C35.3804 31.4407 35.0069 29.8874 34.3587 28.4421C34.086 28.5586 33.7956 28.628 33.4998 28.6475C33.1335 28.6676 32.7669 28.6141 32.4216 28.4901C32.0763 28.3661 31.7594 28.1742 31.4896 27.9256Z" fill="#03002B"/>
<path d="M56.5955 24.7707C54.0563 17.2401 50.6396 14.7258 48.2248 13.9416C47.2259 13.6058 46.161 13.5141 45.1193 13.6744C44.0777 13.8346 43.0895 14.2421 42.2377 14.8627C41.2416 15.5442 40.4791 16.5154 40.0533 17.6447C41.5596 18.6612 42.8429 19.9741 43.8247 21.5033C44.0648 21.8769 44.2021 22.3072 44.2228 22.7508C44.2436 23.1944 44.1471 23.6356 43.943 24.0301C43.6918 24.52 43.2906 24.9169 42.7979 25.1628C43.109 25.9034 43.4202 26.8182 43.8994 28.2061C44.942 31.2607 45.2051 34.5274 44.6649 37.7095C44.2775 39.4061 43.5583 41.0094 42.5489 42.427C46.5445 42.2029 50.3533 39.9376 50.4466 35.581C50.4902 33.4775 50.6396 31.7286 49.3077 26.9178C48.6664 24.6641 47.7575 22.4953 46.6005 20.4577C46.364 20.0345 46.0777 19.5055 45.8848 19.0948C45.9307 19.0272 45.9896 18.9693 46.0579 18.9244C46.1263 18.8796 46.2028 18.8487 46.2831 18.8334C46.5303 18.7928 46.7839 18.8413 46.9988 18.9703C48.1813 19.5926 49.7745 21.7149 51.3926 26.5071C52.1519 28.7662 53.0543 34.3177 52.015 36.7013C52.015 36.7013 55.9358 35.0894 57.0499 31.1747C57.3797 29.8989 57.8029 28.3555 56.5955 24.7707Z" fill="#03002B"/>
<path d="M42.8912 33.5523C42.2688 27.0113 39.7794 24.3351 38.8894 23.5945L41.6216 23.719C41.7781 23.7244 41.9331 23.6872 42.0701 23.6114C42.2071 23.5355 42.3209 23.424 42.3995 23.2886C42.4781 23.1531 42.5184 22.9989 42.5162 22.8424C42.514 22.6858 42.4694 22.5328 42.3871 22.3996C39.3313 17.5888 33.0517 16.2818 30.1889 15.9333C30.0656 15.9133 29.9391 15.9309 29.8259 15.9838C29.7127 16.0367 29.6181 16.1225 29.5543 16.2299C29.4905 16.3373 29.4605 16.4615 29.4683 16.5862C29.476 16.7109 29.5211 16.8303 29.5976 16.9291C31.6141 19.8604 32.2302 23.9119 32.3049 25.9284C32.3091 26.1262 32.3711 26.3185 32.4832 26.4816C32.5953 26.6446 32.7527 26.7713 32.9359 26.8461C33.1192 26.9208 33.3203 26.9403 33.5144 26.9022C33.7086 26.8641 33.8874 26.7701 34.0288 26.6316L34.8939 25.7043C35.815 27.2415 36.9913 29.9239 37.1842 34.6352C37.3506 37.7689 36.3407 40.8518 34.3525 43.2797C35.29 43.9241 36.4212 44.2252 37.5551 44.1322C38.6889 44.0392 39.7559 43.5579 40.576 42.7694C42.3899 40.057 43.2081 36.7999 42.8912 33.5523Z" fill="#03002B"/>
</svg>
