<svg xmlns="http://www.w3.org/2000/svg" width="45" height="39" viewBox="0 0 45 39">
  <g id="Grupo_410" data-name="Grupo 410" transform="translate(-422 -5006)">
    <g id="boton_carrito" data-name="boton carrito" transform="translate(423 5007)">
      <rect id="Rectángulo_459" data-name="Rectángulo 459" width="43" height="37" fill="#03002b" stroke="#03002b" stroke-width="2"/>
      <path id="Trazado_245" data-name="Trazado 245" d="M16.726,22.741H30.731a2.889,2.889,0,0,0,2.881-2.883V13.765a.068.068,0,0,1,0-.031V13.7a.081.081,0,0,0,0-.031h-.188L15.261,10.813V8.306a.231.231,0,0,0,0-.069v-.2L15.229,8h-.081l-.069-.031-4.1-1.918a.7.7,0,0,0-.921.376.709.709,0,0,0,.376.928L13.845,8.8V24.258a2.889,2.889,0,0,0,2.505,2.858,2.883,2.883,0,1,0,5.293,1.448,2.8,2.8,0,0,0-.37-1.423h6.32a2.822,2.822,0,0,0-.395,1.423,2.849,2.849,0,1,0,2.844-2.833H16.726a1.472,1.472,0,0,1-1.472-1.473V22.346A2.937,2.937,0,0,0,16.726,22.741Zm3.514,5.823a1.441,1.441,0,1,1-.422-1.019A1.443,1.443,0,0,1,20.24,28.564Zm11.274,0a.595.595,0,1,0-.025,0Zm-.783-7.233H16.726a1.472,1.472,0,0,1-1.472-1.473V12.23L32.2,14.568v5.284a1.479,1.479,0,0,1-1.472,1.479Z" transform="translate(-0.85 -0.917)" fill="#fff"/>
    </g>
    <path id="Trazado_247" data-name="Trazado 247" d="M1.525,0A1.525,1.525,0,1,1,0,1.525,1.525,1.525,0,0,1,1.525,0Z" transform="translate(450.646 5033.204)" fill="#03002b"/>
  </g>
</svg>
