<svg width="24" height="26" viewBox="0 0 24 26" fill="none" xmlns="http://www.w3.org/2000/svg">
<path d="M6.61643 16.4676H20.3927C21.1438 16.466 21.8638 16.1666 22.3949 15.6351C22.926 15.1036 23.2252 14.3831 23.2268 13.6314V7.76784C23.2268 7.76784 23.2268 7.76784 23.2268 7.73701V7.70618C23.2268 7.70618 23.2268 7.70618 23.2268 7.66919C23.2268 7.63219 23.2268 7.66919 23.2268 7.63836C23.2244 7.62822 23.2244 7.61767 23.2268 7.60753V7.57054C23.2288 7.56036 23.2288 7.54989 23.2268 7.53971H23.196H23.1652H23.1344H23.042L5.17473 4.73433V2.26806C5.1781 2.24558 5.1781 2.22272 5.17473 2.20024C5.17473 2.20024 5.17473 2.20024 5.17473 2.15708V2.11392V2.07076V2.03377V2.00294L5.14392 1.97211C5.14392 1.97211 5.14392 1.97211 5.10695 1.97211H5.06383L4.99605 1.94128L0.960526 0.0545886C0.876814 0.0191411 0.786928 0.000594508 0.696032 1.406e-05C0.605136 -0.000566388 0.51502 0.0168308 0.430863 0.0512063C0.346705 0.0855817 0.270163 0.136258 0.205634 0.200324C0.141105 0.264391 0.0898597 0.340584 0.0548426 0.424529C-0.0169269 0.594606 -0.0183073 0.786238 0.0510045 0.957333C0.120316 1.12843 0.254653 1.265 0.424509 1.33705L3.78232 2.75515V17.9597C3.78373 18.6474 4.03423 19.3112 4.48738 19.8282C4.94054 20.3452 5.56562 20.6802 6.24676 20.7712C5.98935 21.2017 5.8531 21.6938 5.85245 22.1955C5.83468 22.5746 5.89394 22.9533 6.02664 23.3088C6.15935 23.6643 6.36274 23.9891 6.62452 24.2636C6.88629 24.5382 7.201 24.7567 7.54961 24.9061C7.89822 25.0554 8.27348 25.1324 8.65267 25.1324C9.03187 25.1324 9.40713 25.0554 9.75574 24.9061C10.1043 24.7567 10.4191 24.5382 10.6808 24.2636C10.9426 23.9891 11.146 23.6643 11.2787 23.3088C11.4114 22.9533 11.4707 22.5746 11.4529 22.1955C11.4587 21.7049 11.3332 21.2216 11.0894 20.7959H17.306C17.0547 21.2197 16.9207 21.7027 16.9178 22.1955C16.9141 22.7514 17.0756 23.2958 17.3817 23.7597C17.6877 24.2236 18.1246 24.5861 18.6369 24.8011C19.1492 25.0161 19.7137 25.0739 20.2589 24.9673C20.804 24.8606 21.3053 24.5943 21.6989 24.2021C22.0926 23.8099 22.3609 23.3094 22.4699 22.7644C22.5789 22.2193 22.5236 21.654 22.311 21.1405C22.0984 20.6269 21.7382 20.1881 21.276 19.8797C20.8138 19.5714 20.2704 19.4074 19.715 19.4086H6.61643C6.23243 19.4086 5.86416 19.256 5.59263 18.9842C5.32111 18.7125 5.16857 18.344 5.16857 17.9597V16.0792C5.60864 16.3338 6.10807 16.4678 6.61643 16.4676ZM10.0728 22.1955C10.0728 22.476 9.9897 22.7502 9.83399 22.9834C9.67829 23.2166 9.45697 23.3983 9.19804 23.5057C8.93911 23.613 8.65418 23.6411 8.3793 23.5864C8.10442 23.5316 7.85192 23.3966 7.65375 23.1983C7.45557 22.9999 7.32061 22.7472 7.26593 22.4722C7.21125 22.1971 7.23931 21.9119 7.34657 21.6528C7.45382 21.3937 7.63545 21.1722 7.86848 21.0164C8.10151 20.8606 8.37549 20.7774 8.65576 20.7774C9.03158 20.7774 9.39202 20.9268 9.65777 21.1927C9.92351 21.4587 10.0728 21.8194 10.0728 22.1955ZM21.1628 22.1955C21.1628 22.476 21.0797 22.7502 20.924 22.9834C20.7683 23.2166 20.547 23.3983 20.288 23.5057C20.0291 23.613 19.7442 23.6411 19.4693 23.5864C19.1944 23.5316 18.9419 23.3966 18.7437 23.1983C18.5456 22.9999 18.4106 22.7472 18.3559 22.4722C18.3013 22.1971 18.3293 21.9119 18.4366 21.6528C18.5438 21.3937 18.7254 21.1722 18.9585 21.0164C19.1915 20.8606 19.4655 20.7774 19.7458 20.7774C20.1173 20.7839 20.4714 20.9361 20.7319 21.2014C20.9923 21.4666 21.1382 21.8236 21.1382 22.1955H21.1628ZM20.3927 15.0803H6.61643C6.23243 15.0803 5.86416 14.9277 5.59263 14.6559C5.32111 14.3842 5.16857 14.0157 5.16857 13.6314V6.12777L21.8405 8.42757V13.6252C21.8405 14.0101 21.6882 14.3793 21.4168 14.652C21.1455 14.9247 20.7772 15.0787 20.3927 15.0803Z" fill="#03002B"/>
</svg>
