<svg width="25" height="18" viewBox="0 0 25 18" fill="none" xmlns="http://www.w3.org/2000/svg">
<path d="M24.355 6.11108C24.355 4.72693 23.8057 3.39935 22.8277 2.41987C21.8497 1.44038 20.523 0.88906 19.1388 0.886963H5.62734C4.24319 0.88906 2.91645 1.44038 1.93845 2.41987C0.960447 3.39935 0.411137 4.72693 0.411139 6.11108V12.4433C0.410098 13.129 0.544252 13.8082 0.805925 14.4419C1.0676 15.0757 1.45165 15.6517 1.93613 16.1369C2.4206 16.6221 2.99598 17.007 3.62936 17.2696C4.26273 17.5323 4.94167 17.6675 5.62734 17.6675H19.1625C20.546 17.6675 21.8727 17.1179 22.851 16.1397C23.8292 15.1614 24.3787 13.8347 24.3787 12.4513L24.355 6.11108ZM15.8144 9.60174L10.4161 12.5621C10.1866 12.6887 9.97285 12.5146 9.97285 12.2455V6.1744C9.97285 5.90528 10.1866 5.73114 10.424 5.8657L15.8619 8.9606C15.9202 8.99397 15.968 9.0432 15.9996 9.10258C16.0312 9.16196 16.0453 9.22907 16.0403 9.29615C16.0353 9.36322 16.0115 9.42751 15.9715 9.4816C15.9315 9.53568 15.877 9.57733 15.8144 9.60174Z" fill="#F2F2F2"/>
</svg>
